<svg xmlns="http://www.w3.org/2000/svg" viewBox="0 0 224.68 97"><defs><style>.cls-1{fill:#72706e;}</style></defs><g id="Layer_2" data-name="Layer 2"><g id="Layer_2-2" data-name="Layer 2"><path class="cls-1" d="M115.13.54c1.86.11,3.74.32,5.61.31,3.45,0,6.91-.07,10.35-.28,2.1-.12,2.12-.23,2.63,1.73q7.07,27.2,14.14,54.39c.12.44.28.87.56,1.73a14.19,14.19,0,0,0,.81-1.58q8.61-25.11,17.19-50.24.87-2.55,1.64-5.13a1.09,1.09,0,0,1,1.47-.88,22,22,0,0,0,8.74,0c.89-.18,1.22.16,1.49,1q6,19.16,12.13,38.28c1.83,5.77,3.62,11.55,5.43,17.33.08.26.2.51.45,1.16.38-.87.67-1.4.85-2,2.21-7.28,4.46-14.56,6.6-21.87Q210,18.19,214.66,1.81c.29-1,.64-1.24,1.76-1.15,2.29.2,4.61,0,6.91,0,.4,0,.8-.08,1.35-.14-1.62,4.66-3.2,9.1-4.71,13.57-4.61,13.67-9.26,27.33-13.78,41-2.45,7.41-4.66,14.9-7,22.36-.27.88-.41,1.27-1.65,1.18-3.37-.25-6.77-.09-10.48-.09-5-18.73-11-37.37-17.89-55.76l-.57,0-19.7,55.74H137.89Q126.6,39.85,115.13.54Z"/><path class="cls-1" d="M72.09,78.84c-1.42-.1-2.64-.26-3.85-.25-4.68,0-9.36.08-14,.25-1.16,0-1.48-.45-1.78-1.34-2.29-6.92-4.62-13.82-6.88-20.75a1.8,1.8,0,0,0-2-1.46q-11.88.06-23.76,0a1.75,1.75,0,0,0-1.94,1.41c-2.29,7-4.62,13.91-6.9,20.88-.3.92-.63,1.16-1.68,1.11-3-.16-6-.06-9.24-.06l1.82-4.36C8.25,58.83,14.74,43.42,21.07,28c3.65-8.89,7.06-17.88,10.53-26.84.41-1.06.91-1.23,2-1.07a15,15,0,0,0,5,.08c1.65-.35,2.2.12,2.74,1.57,3.15,8.48,6.29,17,9.63,25.35,6,15.17,12.2,30.29,18.33,45.42.68,1.67,1.47,3.29,2.2,4.93C71.73,77.82,71.87,78.25,72.09,78.84ZM32.41,21.75l-.57.05c-3.77,8.87-7.43,17.78-10.56,27H42.54C39.1,39.65,35.75,30.7,32.41,21.75Z"/><path class="cls-1" d="M84.06.53c2,.12,3.88.32,5.71.32,3.5,0,7-.06,10.5-.24,2-.11,2.11-.16,2,1.75-1,17-.91,34-.78,51,0,5.74.32,11.48.15,17.21-.21,7.17-1.91,13.91-7.39,19.08-4.32,4.08-9.69,6-15.38,7.11-2,.4-2,.34-2.72-1.6-.25-.71-.5-1.43-.74-2.15-.07-.22-.09-.46-.16-.79.88-.5,1.75-1.06,2.67-1.51C81.53,89,83.27,85.93,83.67,82c.32-3.2.73-6.41.78-9.62Q84.81,48,85,23.49c0-5.35-.29-10.7-.49-16.06C84.4,5.22,84.22,3,84.06.53Z"/></g></g></svg>