<?xml version="1.0" encoding="utf-8"?>
<!-- Generator: Adobe Illustrator 24.2.0, SVG Export Plug-In . SVG Version: 6.00 Build 0)  -->
<svg version="1.1"
	 id="svg2" inkscape:version="0.48.2 r9819" sodipodi:docname="New document 1" xmlns:cc="http://creativecommons.org/ns#" xmlns:dc="http://purl.org/dc/elements/1.1/" xmlns:inkscape="http://www.inkscape.org/namespaces/inkscape" xmlns:rdf="http://www.w3.org/1999/02/22-rdf-syntax-ns#" xmlns:sodipodi="http://sodipodi.sourceforge.net/DTD/sodipodi-0.dtd" xmlns:svg="http://www.w3.org/2000/svg"
	 xmlns="http://www.w3.org/2000/svg" xmlns:xlink="http://www.w3.org/1999/xlink" x="0px" y="0px" viewBox="0 0 300 46.4"
	 style="enable-background:new 0 0 300 46.4;" xml:space="preserve">
<style type="text/css">
	.st0{fill:none;}
	.st1{fill:url(#path3016_1_);}
	.st2{fill:url(#path3018_1_);}
	.st3{fill:url(#path3014_1_);}
	.st4{fill:url(#path3012_1_);}
	.st5{fill:#334357;}
</style>
<sodipodi:namedview  bordercolor="#666666" borderopacity="1.0" fit-margin-bottom="0.5" fit-margin-left="0.5" fit-margin-right="0.5" fit-margin-top="0.5" id="base" inkscape:current-layer="g2993" inkscape:cx="247.82949" inkscape:cy="-39.177568" inkscape:document-units="px" inkscape:pageopacity="0.0" inkscape:pageshadow="2" inkscape:window-height="1028" inkscape:window-maximized="1" inkscape:window-width="1920" inkscape:window-x="-8" inkscape:window-y="-8" inkscape:zoom="1.979899" pagecolor="#ffffff" showgrid="false">
	</sodipodi:namedview>
<g id="g5437">
</g>
<g>
	<rect class="st0" width="300" height="46.4"/>
	<g id="layer1-8" transform="matrix(0.72462467,0,0,-0.72462467,-193.02879,488.4987)" inkscape:label="Layer 1">
		<g id="g5423" transform="matrix(0.07116922,0,0,0.07116922,677.12796,-316.7662)">
			
				<linearGradient id="path3016_1_" gradientUnits="userSpaceOnUse" x1="17434.8652" y1="60021.7266" x2="17434.8652" y2="60238.8984" gradientTransform="matrix(8.663470e-02 0 0 -8.663470e-02 -1841.4988 18598.748)">
				<stop  offset="0" style="stop-color:#EB2023"/>
				<stop  offset="9.626903e-02" style="stop-color:#E92026"/>
				<stop  offset="0.2039" style="stop-color:#E31E27"/>
				<stop  offset="0.2986" style="stop-color:#E01E26"/>
				<stop  offset="0.4043" style="stop-color:#D81F27"/>
				<stop  offset="0.5" style="stop-color:#CF2027"/>
				<stop  offset="0.6" style="stop-color:#C62127"/>
				<stop  offset="0.7" style="stop-color:#B92025"/>
				<stop  offset="0.8" style="stop-color:#AE1F23"/>
				<stop  offset="0.9" style="stop-color:#A01D22"/>
				<stop  offset="1" style="stop-color:#901C1C"/>
			</linearGradient>
			<path id="path3016" inkscape:connector-curvature="0" sodipodi:nodetypes="ccccccccc" class="st1" d="M-579.8,13274.2l101.1-168
				c31.3-50.3,83-73.2,147.3-73.2h260.1l-304.5,369l-43.2,24.6l-114-37.2l-57.8-83.6L-579.8,13274.2z"/>
			
				<linearGradient id="path3018_1_" gradientUnits="userSpaceOnUse" x1="14219.1865" y1="60933.9375" x2="14339.8467" y2="60856.6641" gradientTransform="matrix(8.663470e-02 0 0 -8.663470e-02 -1841.4988 18598.748)">
				<stop  offset="0" style="stop-color:#6C221F"/>
				<stop  offset="0.2491" style="stop-color:#7F2620"/>
				<stop  offset="0.4983" style="stop-color:#982B24"/>
				<stop  offset="0.7491" style="stop-color:#B53125"/>
				<stop  offset="1" style="stop-color:#CB3327"/>
			</linearGradient>
			<path id="path3018" inkscape:connector-curvature="0" sodipodi:nodetypes="cccccc" class="st2" d="M-375.8,13402l-63.6,77.1
				l-168-90.4l17.8-91.2l9.8-23.3C-583.6,13336-477.5,13407.8-375.8,13402z"/>
			
				<linearGradient id="path3014_1_" gradientUnits="userSpaceOnUse" x1="13884.5596" y1="60213.9492" x2="14061.3369" y2="60111.6719" gradientTransform="matrix(8.663470e-02 0 0 -8.663470e-02 -1841.4988 18598.748)">
				<stop  offset="0" style="stop-color:#E7EBEE"/>
				<stop  offset="0.2491" style="stop-color:#DFE4E8"/>
				<stop  offset="0.4983" style="stop-color:#CAD1D7"/>
				<stop  offset="0.7491" style="stop-color:#A8B5BD"/>
				<stop  offset="1" style="stop-color:#93A6AD"/>
			</linearGradient>
			<path id="path3014" inkscape:connector-curvature="0" sodipodi:nodetypes="ccccccccc" class="st3" d="M-579.8,13274.2
				l-90.9,150.3c-10.9,17-13.9,32-13.9,49.3c0,19.1,8.1,29.6,39.4,46.2c36.5,17.5,109.9,25,185.5,25c123,0,152.4-39.5,165-82
				c0,0-17.4,6.9-58.2,6.9c-129.5,0-233.1-62.9-233.1-158.1C-585.9,13291.9-579.8,13274.2-579.8,13274.2z"/>
			
				<linearGradient id="path3012_1_" gradientUnits="userSpaceOnUse" x1="12741.9268" y1="54079.4766" x2="12741.9268" y2="54289.4609" gradientTransform="matrix(8.663470e-02 0 0 -8.663470e-02 -1841.4988 18598.748)">
				<stop  offset="0" style="stop-color:#05AEE9"/>
				<stop  offset="9.626903e-02" style="stop-color:#00A9E0"/>
				<stop  offset="0.2039" style="stop-color:#07A3DC"/>
				<stop  offset="0.2986" style="stop-color:#089DD5"/>
				<stop  offset="0.4043" style="stop-color:#0A92CC"/>
				<stop  offset="0.5" style="stop-color:#0F87C3"/>
				<stop  offset="0.6" style="stop-color:#127CB8"/>
				<stop  offset="0.7" style="stop-color:#0E70AD"/>
				<stop  offset="0.8" style="stop-color:#0F63A3"/>
				<stop  offset="0.9" style="stop-color:#135393"/>
				<stop  offset="1" style="stop-color:#184485"/>
			</linearGradient>
			<path id="path3012" inkscape:connector-curvature="0" sodipodi:nodetypes="ccccccc" class="st4" d="M-970.2,13913.6h122.3
				c51.6,0,72.7-21.1,93.6-41.8c23.9-21.7,96.3-119.7,249.3-311h-165.7c-67.7,0-89.2,11.5-115.4,51.5L-970.2,13913.6z"/>
		</g>
	</g>
	<g id="g2995" transform="translate(343.0214,678.6423)">
		<path id="path2997" inkscape:connector-curvature="0" class="st5" d="M-45.1-634.8l0.5,1.6h0l0.5-1.6h0.4l0.3,2.1h-0.3l-0.2-1.7h0
			l-0.5,1.7h-0.3l-0.5-1.7h0l-0.2,1.7h-0.3l0.3-2.1H-45.1z M-46.1-634.8v0.3h-0.6v1.8H-47v-1.8h-0.6v-0.3
			C-47.6-634.8-46.1-634.8-46.1-634.8z"/>
	</g>
	<g id="g3083">
		<g id="g3089" transform="translate(254.3689,693.6163)">
			<path id="path3091" inkscape:connector-curvature="0" class="st5" d="M-105.4-674.9L-105.4-674.9l-3.7,10.1h7.3L-105.4-674.9z
				 M-99-656.8l-1.8-5h-9.4l-1.8,5h-4l8.4-22.2h4.5l8.3,22.2C-94.7-656.8-99-656.8-99-656.8z M-65-679.8h3.9v3.7H-65V-679.8z
				 M-64.9-673.7h3.8v16.9h-3.8C-64.9-656.8-64.9-673.7-64.9-673.7z M-93.2-679.8h3.9v3.7h-3.9C-93.2-676.1-93.2-679.8-93.2-679.8z
				 M-93.2-673.7h3.8v16.9h-3.8C-93.2-656.8-93.2-673.7-93.2-673.7z M-69.1-679.8h-3.8v23h3.8C-69.1-656.8-69.1-679.8-69.1-679.8z
				 M-81.3-665v8.2h-3.8v-12.6c0-1.2-0.1-3.5-0.2-4.3h3.1c0.3,0,0.4,0.1,0.4,0.5c0,0.5,0,2.1,0,2.1h0.1c0.3-0.7,1.4-2.9,4.6-2.9
				c1.1,0,1.9,0.3,2,0.4c0,0.7-0.1,2.3-0.1,2.7c0,0.3-0.1,0.4-0.3,0.4c-0.1,0-0.2,0-0.3-0.1c-0.2-0.1-0.8-0.3-1.6-0.3
				C-79.4-670.8-81.3-669.4-81.3-665 M-46.4-656.8v-10.9c0-2.1-1-3.4-2.7-3.4c-2.4,0-3.9,2.5-3.9,5.9v8.4h-3.8v-12.4
				c0-1.4-0.1-3.4-0.2-4.5h3.1c0.3,0,0.4,0.1,0.5,0.5c0,0.4,0,2.1,0,2.1h0.1c0.5-0.8,1.6-2.9,5.2-2.9c3.6,0,5.7,2.5,5.7,5.3v12
				H-46.4z M-35.8-667h7.1c0.1-2.7-1.3-4.2-3.4-4.2C-34.4-671.2-35.7-669.6-35.8-667 M-26.3-660.5c0.2,0,0.3,0.2,0.3,0.4
				c0.1,0.7,0.1,2.4,0.1,2.8c-0.4,0.1-2.5,0.9-5.2,0.9c-5.4,0-8.6-2.8-8.6-8.8c0-5.1,2.8-8.8,7.7-8.8c4.9,0,7.2,3.3,7.2,7.3
				c0,0.5-0.1,1.3-0.1,2.3h-10.8c0,2.9,1.8,5,5.2,5c1.9,0,3.4-0.7,4-1C-26.5-660.4-26.5-660.5-26.3-660.5 M-17.4-656.5
				c5,0,7.4-2,7.4-5.1c0-3-2.1-4.2-4.4-5c-0.6-0.2-1.3-0.4-1.9-0.6c-1.5-0.5-2.3-1.2-2.3-2.2c0-1.1,1-1.8,3-1.8c1.8,0,3.2,0.7,3.8,1
				c0.1,0,0.2,0.1,0.3,0.1c0.1,0,0.3-0.1,0.3-0.4c0-0.6,0.1-1.6,0.1-2.6c-0.5-0.2-2.1-1.1-4.8-1.1c-4.1,0-6.7,2.1-6.7,5
				c0,2.7,1.9,4,3.9,4.7c0.5,0.2,1.4,0.5,1.9,0.6c2.2,0.7,2.8,1.4,2.8,2.4c0,1.3-1.4,2-3.8,2c-2,0-3.3-0.7-3.9-1
				c-0.1,0-0.2-0.1-0.3-0.1c-0.3,0-0.3,0.4-0.3,0.4c0,0.2-0.1,1.9-0.1,2.5C-21.9-657.3-20-656.5-17.4-656.5 M-243.4-674.9
				L-243.4-674.9l-3.7,10.1h7.3L-243.4-674.9z M-236.9-656.8l-1.8-5h-9.4l-1.8,5h-4l8.4-22.2h4.5l8.3,22.2H-236.9z M-174.3-679.8
				h3.9v3.7h-3.9V-679.8z M-174.2-673.7h3.8v16.9h-3.8C-174.2-656.8-174.2-673.7-174.2-673.7z M-182.5-665v8.2h-3.8v-12.6
				c0-1.2-0.1-3.5-0.2-4.3h3.1c0.3,0,0.4,0.1,0.4,0.5c0,0.5,0,2.1,0,2.1h0.1c0.3-0.7,1.4-2.9,4.6-2.9c1.1,0,1.9,0.3,2,0.4
				c0,0.7-0.1,2.3-0.1,2.7c0,0.3-0.1,0.4-0.3,0.4c-0.1,0-0.2,0-0.3-0.1c-0.2-0.1-0.8-0.3-1.6-0.3
				C-180.6-670.8-182.5-669.4-182.5-665 M-210.8-656.8v-10.8c0-1.9-0.8-3.5-2.8-3.5c-2.2,0-3.5,2.4-3.5,5.9v8.4h-3.8v-10.8
				c0-1.8-0.7-3.4-2.8-3.4c-2.3,0-3.5,2.4-3.5,6v8.3h-3.8v-12.3c0-1.6-0.1-3.8-0.2-4.6h3.1c0.3,0,0.5,0.1,0.5,0.5c0,0.4,0,2.1,0,2.1
				h0.1c0.2-0.5,1.5-2.9,5-2.9c3.3,0,4.5,2.4,4.8,3.1c0.3-0.6,1.8-3.1,5.1-3.1c3.4,0,5.8,1.8,5.8,5.6v11.7H-210.8L-210.8-656.8z
				 M-200.2-667h7.1c0.1-2.7-1.3-4.2-3.4-4.2C-198.8-671.2-200.1-669.6-200.2-667 M-190.7-660.5c0.2,0,0.3,0.2,0.3,0.4
				c0.1,0.7,0.1,2.4,0.1,2.8c-0.4,0.1-2.5,0.9-5.2,0.9c-5.4,0-8.6-2.8-8.6-8.8c0-5.1,2.8-8.8,7.7-8.8c4.9,0,7.2,3.3,7.2,7.3
				c0,0.5-0.1,1.3-0.1,2.3h-10.8c0,2.9,1.8,5,5.2,5c1.9,0,3.4-0.7,4-1C-190.9-660.4-190.9-660.5-190.7-660.5 M-142.6-665.3h-0.7
				c-4.8,0-5.8,1.7-5.8,3.4c0,1.4,0.9,2.7,2.7,2.7c2.4,0,3.7-2.3,3.7-4.7C-142.6-664-142.6-665.3-142.6-665.3z M-141.7-656.8
				c-0.3,0-0.6-0.1-0.6-0.6c0-0.6-0.1-1.6-0.1-1.6h-0.1c-0.2,0.3-1.6,2.5-5.1,2.5c-3.4,0-5.3-2.6-5.3-5.4c0-3.9,3.8-5.9,9.5-5.9h0.8
				v-0.6c0-1.8-1.3-2.7-3.6-2.7c-2.1,0-3.9,0.7-4.6,1.1c0,0-0.2,0.1-0.3,0.1c-0.2,0-0.3-0.1-0.3-0.3c0-0.6-0.1-1.9-0.1-2.6
				c0.7-0.3,3-1.1,5.5-1.1c5,0,7.2,2.3,7.2,6.1v6.6c0,2.4,0.2,4,0.3,4.6C-138.5-656.8-141.7-656.8-141.7-656.8z M-155-660.5
				c0.1,0,0.2,0.1,0.3,0.4c0.1,0.8,0.1,2.1,0.1,2.5c-0.8,0.4-2.4,1.1-4.5,1.1c-5.1,0-8.3-3-8.3-8.8c0-5.4,2.8-8.8,8.3-8.8
				c1.8,0,3.5,0.6,4.5,1.1c0,0.6-0.1,2-0.1,2.5c0,0.2-0.1,0.4-0.3,0.4c-0.2,0-0.2,0-0.3-0.1c-1.2-0.6-2.4-0.9-3.4-0.9
				c-3.3,0-4.6,2.1-4.6,5.7c0,3.2,1.1,5.7,4.6,5.7c1.3,0,2.6-0.5,3.3-0.8C-155.1-660.4-155.1-660.5-155-660.5 M-125-656.8v-10.9
				c0-2.1-1-3.4-2.7-3.4c-2.4,0-3.9,2.5-3.9,5.9v8.4h-3.8v-12.4c0-1.4-0.1-3.4-0.2-4.5h3.1c0.4,0,0.5,0.1,0.5,0.5c0,0.4,0,2.1,0,2.1
				h0.1c0.5-0.8,1.6-2.9,5.2-2.9c3.6,0,5.7,2.5,5.7,5.3v12C-121.1-656.8-125-656.8-125-656.8z"/>
		</g>
	</g>
</g>
</svg>
