<svg xmlns="http://www.w3.org/2000/svg" viewBox="0 0 229.72 70.37"><defs><style>.cls-1{fill:#f60;}.cls-2{fill:#652c8f;}</style></defs><g id="Layer_2" data-name="Layer 2"><g id="Layer_1-2" data-name="Layer 1"><g id="g15"><g id="g17"><polygon id="polygon19" class="cls-1" points="171.04 67.91 190.22 46.35 171.04 24.8 191.28 24.8 200.78 35.27 209.92 24.8 229.46 24.8 210.37 46.26 229.72 67.91 209.4 67.91 199.98 57.35 190.66 67.91 171.04 67.91"/><polygon id="polygon21" class="cls-1" points="171.04 15.13 149.31 15.13 149.31 24.8 171.04 24.8 171.04 39.36 149.31 39.36 149.31 52.73 171.04 52.73 171.04 67.91 133.35 67.91 133.35 0 171.04 0 171.04 15.13"/></g><path id="path23" class="cls-2" d="M117.45,0V27.79h-.18c-3.52-4.05-7.92-5.45-13-5.45-10.45,0-18.33,7.1-21.09,16.5C80,28.49,71.88,22.14,59.82,22.14c-9.79,0-17.51,4.4-21.55,11.56V24.8H18V15.14H40.12V0H0V67.91H18V39.36H36a27.35,27.35,0,0,0-.82,6.71c0,14.17,10.82,24.11,24.63,24.11,11.62,0,19.27-5.46,23.32-15.4H67.68c-2.09,3-3.68,3.88-7.86,3.88a9.29,9.29,0,0,1-9-9.25H82.27c1.37,11.26,10.13,21,22.16,21a15.39,15.39,0,0,0,12.84-6.86h.18V67.9h15.9V0ZM51.3,39.56a8.7,8.7,0,0,1,8.52-7.13,8.28,8.28,0,0,1,8.61,7.13Zm56.5,18c-5.86,0-9.51-5.46-9.51-11.17,0-6.09,3.17-11.95,9.51-11.95,6.57,0,9.18,5.86,9.18,11.95C117,52.18,114.21,57.57,107.8,57.57Z"/></g></g></g></svg>