<svg xmlns="http://www.w3.org/2000/svg" viewBox="0 0 260.34 339.6"><defs><style>.cls-1{fill:#19305a;}</style></defs><g id="Layer_2" data-name="Layer 2"><g id="Layer_2-2" data-name="Layer 2"><path class="cls-1" d="M221.74,295.21h-20c-.1-.85-.19-1.65-.28-2.42-.17-.06-.32-.16-.38-.12-3.39,2.28-7.16,2.7-11.18,2.68-18.59-.11-37.18,0-55.77-.12a14.15,14.15,0,0,1-5.56-1.68,5.16,5.16,0,0,1-2.78-4.57c0-.72-.09-1.44-.09-2.16q0-12.81,0-25.62c0-5.25,3.45-9,8.68-9.11,6.37-.15,12.75-.07,19.13-.07,12.58,0,25.15.06,37.73,0a11.13,11.13,0,0,1,8.88,3.64,3.85,3.85,0,0,0,.33-1c0-1.74,0-3.49,0-5.23,0-4.52-2-7-6.5-7.89a26.32,26.32,0,0,0-5-.47q-30.42-.06-60.83,0c-2.45,0-2.45,0-2.45-2.45,0-4.33,0-8.66,0-13,0-1.17.35-1.58,1.54-1.58,25.75,0,51.51,0,77.26.08,9.44.05,16.15,6.63,17,16.24.17,1.86.25,3.72.26,5.59q0,23.54,0,47.09Zm-50-15.82h18.94a16.35,16.35,0,0,0,2.52-.19,3.69,3.69,0,0,0,3.16-2.63c1.26-4.37-.23-8.3-5.39-8.37-13.35-.16-26.7-.06-40.06,0a4.29,4.29,0,0,0-4.48,3.43c-1.27,4.23,1.38,7.8,5.82,7.8C158.8,279.4,165.29,279.39,171.79,279.39Z"/><path class="cls-1" d="M112.8,224.15V240.9c-.76,0-1.45.13-2.14.13-18.65,0-37.3-.06-55.95.07a38.21,38.21,0,0,0-10.11,1.3c-4.79,1.37-7.31,5.44-7.23,10.45.07,4.57-.09,9.16.3,13.7.66,7.74,6.39,12.81,14.11,12.83q17.34,0,34.66,0a5.65,5.65,0,0,0,5.93-6.52q-.45-4.72-5.21-4.73H59.25v-16a10.55,10.55,0,0,1,1.22-.13q21.57,0,43.13,0c4.69,0,7.8,2.28,9,6.36a10.37,10.37,0,0,1,.3,2.67q0,12.9,0,25.8c0,5.54-2.87,8.43-8.41,8.43H53.58c-5.78,0-11.56.17-17.33-.08a30.58,30.58,0,0,1-8.8-1.59c-7-2.44-11-8.38-11-15.75q0-18.58,0-37.16c.05-10.3,6.3-16.52,16.59-16.55q39-.09,78-.12C111.54,224.05,112.07,224.11,112.8,224.15Z"/><path class="cls-1" d="M22.31,57.61c2.71,9.75,8.14,17.57,15.8,24.65,0-1.44,0-2.41,0-3.38a110.13,110.13,0,0,1,3.31-30.74C44.12,38,48.54,28.63,55.89,20.89a41.66,41.66,0,0,1,13.73-9.75c.5-.21,1-.37,1.52-.54.1,0,.23,0,.49.1A52.26,52.26,0,0,0,64,27.94a118.63,118.63,0,0,0-3.37,25A5.84,5.84,0,0,1,59.6,56c-24.53,32.17-20,76.52,10.48,103.07.36.3.7.63,1.43,1.29a53.11,53.11,0,0,1-27-7.19c-12.85-7.47-21.67-18.5-27.89-31.83,8.29,4.79,17.28,7,27.19,8.07-1.4-1.51-2.44-2.64-3.47-3.77C31.14,115.46,24.19,104,21.05,90.48A60.24,60.24,0,0,1,21.53,60C21.76,59.19,22.05,58.4,22.31,57.61Z"/><path class="cls-1" d="M82.45,193.13c1.67-.37,3.35-.72,5-1.11a107.71,107.71,0,0,0,31.4-12.89,5.75,5.75,0,0,1,2.68-.78c30.69-.81,54-14.19,69.45-40.85.15-.26.28-.53.45-.78.05-.08.19-.11.58-.31-1.37,17.15-6.17,32.7-18.43,45.14-10.32,10.48-23.06,16-37.62,17.69a69.84,69.84,0,0,0,26.53-29.8c-22.69,21.4-49.22,29.8-79.9,24.24Z"/><path class="cls-1" d="M126,328.38c-.2,2.38.4,3.63,2.24,4.24a12.76,12.76,0,0,0,3.88.63c6.74.06,13.47,0,20.21,0h2.64v6.15c-.88,0-1.76.12-2.63.12H127.93c-5.09,0-8.71-3.36-8.86-8.45-.13-4.51-.11-9,0-13.53A7.14,7.14,0,0,1,126,310.2c3.71-.27,7.45-.15,11.18-.17s7.7,0,11.55,0,6,1.95,6.26,5.73c.2,3,.1,6,0,9a3.12,3.12,0,0,1-2.38,3.06,12.79,12.79,0,0,1-3.54.52c-6.91,0-13.83,0-20.75,0Zm11.09-6.89c2.77,0,5.54.1,8.3-.07a2.94,2.94,0,0,0,2.14-1.39,2.09,2.09,0,0,0-1-2.91,4.46,4.46,0,0,0-1.91-.4q-7.66,0-15.34,0c-1.83,0-2.73.82-2.69,2.37s1,2.38,2.75,2.4C131.87,321.51,134.46,321.49,137.05,321.49Z"/><path class="cls-1" d="M82.93,333.28c0,1.87,0,3.43,0,5,0,.92-.32,1.28-1.26,1.28-9.08,0-18.16.06-27.24-.05a7.56,7.56,0,0,1-7.15-6.76,108.64,108.64,0,0,1-.17-15.83c.3-4.48,3.33-6.8,8-6.86,7.4-.08,14.8,0,22.19,0a5.23,5.23,0,0,1,5.44,5,91.78,91.78,0,0,1,.09,10.09c0,1.73-1.4,2.61-2.94,3a14.13,14.13,0,0,1-3,.27c-7.09,0-14.19,0-21.29,0-2,0-2.45.78-1.46,2.53,1.17,2.08,3.26,2.34,5.33,2.35,7,.05,14.07,0,21.11,0ZM65.17,321.49c2.76,0,5.52,0,8.28,0,1.17,0,2.16-.58,2.06-1.76a5.34,5.34,0,0,0-1.29-2.66c-.28-.35-1.11-.34-1.7-.34-5.1,0-10.2,0-15.29,0-1.89,0-2.77.74-2.81,2.27s1,2.48,2.84,2.5C59.9,321.51,62.54,321.49,65.17,321.49Z"/><path class="cls-1" d="M64.18,50.14A71.75,71.75,0,0,1,75.13,29.2C85.58,15.54,99.63,7.46,116,3.11a89,89,0,0,1,27.37-3c-2.45.83-4.92,1.62-7.36,2.48-13.75,4.87-26.43,11.57-37.1,21.69a5.54,5.54,0,0,0-.65.63c-3.57,4.79-8.41,7.73-13.77,10.26a66.83,66.83,0,0,0-19.26,14.4,5.15,5.15,0,0,0-.59.92Z"/><path class="cls-1" d="M190.14,177.18c1.63-4.3,3.47-8.53,4.86-12.9a60,60,0,0,0,.78-35.5,3.32,3.32,0,0,1-.06-1.92,82.56,82.56,0,0,0,4.41-29.58c.27.53.56,1,.8,1.58,4.71,10.26,8.42,20.84,9.56,32.14,1.54,15.42-1.54,29.46-13,40.73a91.41,91.41,0,0,1-7.16,5.79Z"/><path class="cls-1" d="M158.25,333.28h19.47c1.74,0,3.49,0,5.23,0,2-.07,3.27-1.12,3.25-2.44,0-1.64-1.29-2.67-3.39-2.68h-16.6a5.88,5.88,0,0,1-6.06-6c0-2.58,0-5.17,0-7.75,0-3.22,1-4.33,4.29-4.35,6.26,0,12.51,0,18.77,0h7.86v6.57c-.64,0-1.28.09-1.92.09-6.55,0-13.11,0-19.66,0-1.5,0-2.67.21-2.63,2.09s.78,2.71,2.74,2.72h18c2.88,0,4.73,1.05,5.61,3.77a17.85,17.85,0,0,1-.68,12.5,2.91,2.91,0,0,1-3,1.8q-14.7-.06-29.4,0c-1.54,0-2-.52-1.89-2S158.25,334.88,158.25,333.28Z"/><path class="cls-1" d="M209.21,333.28h23.25a9,9,0,0,0,2.33-.13c1.23-.34,2.51-.85,2.31-2.5a2.62,2.62,0,0,0-2.81-2.49c-1.63,0-3.25,0-4.87,0H217.14a5.91,5.91,0,0,1-6.06-6c0-2.64,0-5.29,0-7.94,0-2.89,1.08-4.1,4-4.12,6.2-.05,12.4,0,18.59,0H242v6.59c-.66,0-1.35.09-2,.09q-9.75,0-19.49,0c-1.46,0-2.7.14-2.68,2s.78,2.76,2.71,2.76c5.89,0,11.79,0,17.69,0,3.68,0,5.79,1.6,6.45,5.29a19.89,19.89,0,0,1-.76,10.14,3.5,3.5,0,0,1-3.75,2.65q-14.34-.13-28.7,0c-1.88,0-2.45-.56-2.25-2.35A37,37,0,0,0,209.21,333.28Z"/><path class="cls-1" d="M225.81,126.13c-2.66-5.64-5.13-11.38-8-16.9-4.94-9.44-11-18-19.44-24.8a2.63,2.63,0,0,1-.86-1.31,74.24,74.24,0,0,0-8.17-19.55c0-.08,0-.21,0-.31C212.69,70.29,232.46,104.45,225.81,126.13Z"/><path class="cls-1" d="M196.44,25.92c-5.84-1-11.37-2.13-16.95-2.88-12.12-1.63-24.21-1.95-36.12,1.56a10.92,10.92,0,0,0-2.22.74c-2.85,1.61-5.78,1.65-9,1.12a66.59,66.59,0,0,0-20.13-.1c-.48.06-1,.08-1.44.11a3.87,3.87,0,0,1-.69-.33c3.54-1.77,6.78-3.53,10.14-5A85.7,85.7,0,0,1,154.56,13a69.3,69.3,0,0,1,39.93,11.48C195.08,24.87,195.64,25.33,196.44,25.92Z"/><path class="cls-1" d="M112.84,177.93A116.3,116.3,0,0,1,84,180.56a72.27,72.27,0,0,1-26-5.42,43.14,43.14,0,0,1-13.67-8.9c-.37-.38-.71-.78-1.38-1.53,2.67.44,4.91.83,7.16,1.18a70.2,70.2,0,0,0,25.8-.84,3.93,3.93,0,0,1,2.62.47A81.71,81.71,0,0,0,112.84,177.93Z"/><path class="cls-1" d="M224.18,69.12c-5.67-3.65-11-7.41-16.69-10.68A83.85,83.85,0,0,0,178.13,48a4.16,4.16,0,0,1-2.08-.9,82,82,0,0,0-16-11.62c-.19-.1-.36-.26-.92-.67,13.55-.31,26.06,2.08,37.74,8.21A67.25,67.25,0,0,1,224.18,69.12Z"/><path class="cls-1" d="M87.28,310.05c2.12,0,4.15-.07,6.16.07.34,0,.86,1,.86,1.55.07,5.48,0,10.95,0,16.42,0,4.17,1,5.19,5.24,5.19h16.48c0,1.87.06,3.6-.06,5.31,0,.34-.74.91-1.14.91-6.86.05-13.72.18-20.57,0-4.59-.14-7.12-3.05-7.14-7.57q0-10,0-20C87.15,311.34,87.22,310.81,87.28,310.05Z"/><path class="cls-1" d="M19.48,339.39H13.17v-2.18c0-6.2,0-12.39,0-18.58,0-1.47-.37-2-1.91-2-3.72.1-7.44,0-11.29,0v-6.51H19.48Z"/><path class="cls-1" d="M24.1,339.34V310.21c.54-.06,1-.15,1.56-.16,5.41,0,10.83,0,16.24,0,1.54,0,2,.51,1.88,2s0,3,0,4.71h-7c-1.51,0-3,.09-4.51,0s-1.85.38-1.83,1.81c.07,6.25,0,12.5,0,18.76v2.09Z"/><path class="cls-1" d="M205.72,310v5.19c0,7.52,0,15,0,22.56,0,1.29-.3,1.79-1.69,1.8-4.83.05-4.83.1-4.83-4.78,0-7.64,0-15.28,0-22.92,0-1.4.35-2,1.8-1.87S204,310,205.72,310Z"/><path class="cls-1" d="M260.34,315.12a5.4,5.4,0,0,1-5.44,5.32,5.43,5.43,0,1,1,5.44-5.32Zm-.73,0a4.76,4.76,0,0,0-4.58-4.85,4.93,4.93,0,0,0-4.91,4.78,4.83,4.83,0,0,0,4.74,4.72A4.69,4.69,0,0,0,259.61,315.1Z"/><path class="cls-1" d="M256.9,318.3l-2.58-3.07-.67,2.92-.47-.07v-6.17c.76,0,1.52-.06,2.28,0,1.29.12,2,1.17,1.45,2.09-1,1.58-.31,2.7.5,4Zm-2.23-5.87-.57.33v2.63L256,313.8Z"/></g></g></svg>