<svg xmlns="http://www.w3.org/2000/svg" viewBox="0 0 371.95 40"><defs><style>.cls-1{fill:#f49f0e;fill-rule:evenodd;}</style></defs><g id="Layer_2" data-name="Layer 2"><g id="Layer_1-2" data-name="Layer 1"><path id="Path_157" data-name="Path 157" class="cls-1" d="M22.81,15.25c-1.57,3.52-4.08,5.52-6.89,5.52a8.21,8.21,0,0,1-4.08-1.28l-1.68-.88-.63-.36L9.65,18c1.51.68,2,.88,2.48,1.08a25.57,25.57,0,0,0,2.43.84l.16-.36L6,15.81l-.32.83c-.72-.31-1-.38-2.43-.9L3,16.53c3.4,1.17,5.12,2,9.69,4.8,5.6,3.52,9.23,5.07,16.48,7l1.11-1.4A14.73,14.73,0,0,1,20,22.77a17.69,17.69,0,0,1,9.2-2.2c.93,0,1.56,0,2.73.13l.88-.88a38.87,38.87,0,0,0-4.44-.25,28,28,0,0,0-4.2.25l.36-.61c1.4-.11,2.23-.16,3.59-.16a38.15,38.15,0,0,1,5.12.32l.85-.88a51.76,51.76,0,0,0-6.93-.4,16.83,16.83,0,0,0-2,.09l.36-.57c.76-.06,1.52-.09,2.28-.08a40.87,40.87,0,0,1,6.72.53l.88-.89a47.73,47.73,0,0,0-7.55-.68c-.73,0-1,0-1.69,0l.32-.52c.92,0,1.28,0,1.68,0a47.53,47.53,0,0,1,7.72.68l.88-.91a56.82,56.82,0,0,0-8.91-.85A33.2,33.2,0,0,0,22.81,15.25ZM20.36,0A20,20,0,1,0,40,20.36v-.31C40,9.09,31.12,0,20.36,0ZM20,38.22A18.21,18.21,0,1,1,38.2,20v.06A18.18,18.18,0,0,1,20,38.22Zm64.3-11.94H73.08V6h-6.5V32.11h17.7Zm8.33,6.28a6.41,6.41,0,0,0,5.48-3.08h.12V32.1h6V13H98.09V23.2c0,3.43-2.06,4.34-3.31,4.34-2,0-3-.91-3-3.42V13H85.87V24.46c0,5,1.48,8.1,6.73,8.1Zm21.58-.45V17h3.54V13h-3.54v-.8c0-1.72.8-1.94,2.17-1.94.45,0,1,.11,1.6.11V6.08A22.72,22.72,0,0,0,115.09,6c-5,0-6.85,1.72-6.85,7.08h-2.85v4h2.85V32.1h5.94Zm7.19-6.51c0,5.13,1.37,6.73,6.4,6.73,1,0,2.16-.22,3.2-.22V27.54c-.46,0-1,.11-1.49.11-1.26,0-2.17-.34-2.17-1.94V17H131V13h-3.66V7.33h-5.94V13h-3v4h3V25.6ZM145,12.47a6.16,6.16,0,0,0-5.48,3.08h-.11V5.85h-5.94V32h5.94V21.6c0-2.05,1-4.11,3.2-4.11,3.2,0,3,2.74,3,5.37V32h5.93V19.78C151.51,17,151.05,12.47,145,12.47Zm20.89,17.92a4.54,4.54,0,0,0,.35,1.71h5.93a11.37,11.37,0,0,1-.68-4.8V19c0-5.47-4.23-6.5-8.45-6.5a10.58,10.58,0,0,0-5.71,1.37A5.75,5.75,0,0,0,154.48,19h5.59a2.61,2.61,0,0,1,2.7-2.52h.16c1.25,0,2.85.57,2.85,2.06a1.6,1.6,0,0,1-1.38,1.81h-.1c-4.11.91-10.5.46-10.5,6.62,0,3.88,2.74,5.71,6.16,5.71A8.25,8.25,0,0,0,165.89,30.39Zm-3.76-6.16a15.5,15.5,0,0,0,3.65-1c.11,4-.8,5.59-3.65,5.59-1.26,0-2.4-.57-2.4-2.17s1-2.05,2.4-2.39Zm18.38-2.63c0-2.05,1-4.11,3.2-4.11,3.2,0,3.2,3,3.2,5.6l.11,9H193v-12c0-2.74-.91-7.76-6.85-7.76a6.91,6.91,0,0,0-5.71,3.2V12.93h-5.82V32h5.94V21.6Zm27.62-.91c-2.74-.69-6.73-1-6.73-2.74,0-1.37,1.6-1.48,2.51-1.48a3.46,3.46,0,0,1,1.94.45,2,2,0,0,1,.68,1.71H212c-.22-5-4.33-6.16-8.33-6.16-3.54,0-8.22,1.25-8.22,5.82,0,5.14,4.68,5.25,8.45,6.28,1,.23,2.85.57,2.85,2.06s-1.6,2.05-2.74,2.05a3.58,3.58,0,0,1-2.28-.69,2.91,2.91,0,0,1-.92-2.16h-5.7c.23,5.36,4.57,6.84,8.9,6.84,4.11,0,8.68-1.71,8.68-6.84a5.29,5.29,0,0,0-4.57-5.14ZM233,18.86c0-5.48-4.11-6.39-8.45-6.39a11.71,11.71,0,0,0-5.7,1.25A6.11,6.11,0,0,0,216,19h5.6a2.69,2.69,0,0,1,2.88-2.51h.08c1.14,0,2.86.57,2.86,2.06,0,1.14-.58,1.48-1.6,1.71-4.12.91-10.5.46-10.5,6.62,0,3.88,2.74,5.71,6.16,5.71a7.68,7.68,0,0,0,5.94-2.29,12.55,12.55,0,0,0,.34,1.83h5.94a12.4,12.4,0,0,1-.69-4.91V18.86Zm-9.36,9.93a2.16,2.16,0,0,1-2.39-1.9,2.44,2.44,0,0,1,0-.27c0-1.48,1.14-2.05,2.4-2.4s2.85-.45,3.65-1C227.42,27.08,226.51,28.79,223.66,28.79ZM255.4,32.1V11.79h7.42V6H240.9v5.83h7.76V32.11h6.74Zm13.35-19.52a9.77,9.77,0,0,0-9.7,9.85v.2c0,6.39,4,10.16,9.93,10.16,4,0,7.88-1.94,8.9-6.28h-5.59A3.3,3.3,0,0,1,269,28.57c-2.51,0-3.88-1.72-4-4.34h13.24C278.45,17.72,275.26,12.58,268.75,12.58ZM265,20.8c.33-2.4,1.71-4,3.76-4s3.42,1.83,3.54,4Zm24.42,7.08c-2.51,0-4-2.63-4-5,0-2.74,1-5.71,4.35-5.71a2.79,2.79,0,0,1,2.85,2.74h5.82c-.46-5-4.45-7.54-8.9-7.54-5.82,0-10,4.34-10,10.5,0,5.83,4.56,9.7,10,9.7,4.8,0,8.56-2.85,9-8h-5.71c-.34,2.07-1.37,3.32-3.42,3.32Zm22-15.41A6.14,6.14,0,0,0,306,15.55V5.85H300V32.11H306V21.72c0-2.17.91-4.11,3.2-4.11,3.2,0,3.2,2.62,3.2,5.25V32.1h5.93V19.77C318.3,17,317.5,12.47,311.45,12.47Zm21.81,0a6.72,6.72,0,0,0-5.6,3.2h-.12V13h-5.7V32.11h5.93V21.72c0-2.06.92-4.11,3.2-4.11,3.2,0,3,2.62,3,5.25V32.1h5.82V19.89c0-2.74-.46-7.42-6.51-7.42Zm10.16,19.64h5.93V13h-5.94Zm0-21.35h5.93V6h-5.94Zm21.11,9.47L371.16,13h-7l-5.36,6.39V6h-5.94V32.11h5.94V26.05l1.6-1.6,4.33,7.65H372Z"/></g></g></svg>