<svg xmlns="http://www.w3.org/2000/svg" viewBox="0 0 24 24"><defs><style>.cls-1{fill:none;}.cls-2{fill:#0159c3;opacity:0.8;isolation:isolate;}</style></defs><g id="Layer_2" data-name="Layer 2"><g id="Layer_2-2" data-name="Layer 2"><rect class="cls-1" width="24" height="24"/><path class="cls-2" d="M22.81,11.17A.61.61,0,0,0,22.3,11a7.16,7.16,0,0,0-1.55.78c-.9.51-1.89,1.11-3,1.77l-1.73,1.06-4.24-2.34V7.31l6.43-3.7a.72.72,0,0,0,0-1.23,7.41,7.41,0,0,0-2.36-1A10.67,10.67,0,0,0,13.22,1a9.49,9.49,0,0,0-7,2.88,9.45,9.45,0,0,0-2.88,6.94,9.45,9.45,0,0,0,2.88,6.93,9.49,9.49,0,0,0,7,2.88,9.59,9.59,0,0,0,5.67-1.83A9.72,9.72,0,0,0,22.5,14a7.87,7.87,0,0,0,.5-2.33A.78.78,0,0,0,22.81,11.17Z"/><path class="cls-2" d="M8,19.66A8.82,8.82,0,0,1,4.35,16a.5.5,0,0,0-.8-.13L1.29,18.14a1,1,0,0,0-.29.71V21a2,2,0,0,0,2,2H5.17a1,1,0,0,0,.71-.29l2.26-2.26A.49.49,0,0,0,8,19.66Z"/></g></g></svg>