<svg xmlns="http://www.w3.org/2000/svg" viewBox="0 0 24 24"><defs><style>.cls-1{fill:#0159c3;opacity:0.8;isolation:isolate;}.cls-2{fill:none;}</style></defs><g id="Layer_2" data-name="Layer 2"><g id="Layer_2-2" data-name="Layer 2"><path class="cls-1" d="M19,1H14a2,2,0,0,1-4,0H5A1,1,0,0,0,4,2V6h.5a.5.5,0,0,1,0,1H4V22a1,1,0,0,0,1,1h5a2,2,0,0,1,2-2h0a2,2,0,0,1,2,2h5a1,1,0,0,0,1-1V7h-.5a.5.5,0,0,1,0-1H20V2h0A1,1,0,0,0,19,1ZM7.5,7h-1V6h1ZM10,7H9V6h1Zm2.5,0h-1V6h1ZM15,7H14V6h1Zm2.5,0h-1V6h1Z"/><rect class="cls-2" width="24" height="24"/></g></g></svg>