<svg xmlns="http://www.w3.org/2000/svg" viewBox="0 0 24 24"><defs><style>.cls-1{fill:none;}.cls-2{fill:#0159c3;opacity:0.8;isolation:isolate;}</style></defs><g id="Layer_2" data-name="Layer 2"><g id="Layer_2-2" data-name="Layer 2"><rect class="cls-1" width="24" height="24"/><path class="cls-2" d="M17.6,14.7a2.49,2.49,0,1,0,2.49,2.49A2.49,2.49,0,0,0,17.6,14.7Z"/><path class="cls-2" d="M5.57,14.7a2.49,2.49,0,1,0,2.49,2.49A2.48,2.48,0,0,0,5.57,14.7Z"/><path class="cls-2" d="M18.43,7.64H13.87v9.13h.87a2.89,2.89,0,0,1,5.73,0H23V12.21A4.58,4.58,0,0,0,18.43,7.64Z"/><path class="cls-2" d="M1,16.77H2.7a2.89,2.89,0,0,1,5.73,0h5V4.32H1Z"/></g></g></svg>